<?xml version="1.0" encoding="UTF-8" standalone="no"?>
<svg
   version="1.0"
   width="128.000000pt"
   height="128.000000pt"
   viewBox="0 0 128.000000 128.000000"
   preserveAspectRatio="xMidYMid meet"
   id="svg6"
   sodipodi:docname="kamogawa_hanko.svg"
   inkscape:version="1.4.3 (0d15f75042, 2025-12-25)"
   xmlns:inkscape="http://www.inkscape.org/namespaces/inkscape"
   xmlns:sodipodi="http://sodipodi.sourceforge.net/DTD/sodipodi-0.dtd"
   xmlns="http://www.w3.org/2000/svg"
   xmlns:svg="http://www.w3.org/2000/svg">
  <defs
     id="defs6" />
  <sodipodi:namedview
     id="namedview6"
     pagecolor="#ffffff"
     bordercolor="#999999"
     borderopacity="1"
     inkscape:showpageshadow="2"
     inkscape:pageopacity="0"
     inkscape:pagecheckerboard="0"
     inkscape:deskcolor="#d1d1d1"
     inkscape:document-units="pt"
     inkscape:zoom="4.6757813"
     inkscape:cx="85.333333"
     inkscape:cy="85.333333"
     inkscape:window-width="1920"
     inkscape:window-height="1011"
     inkscape:window-x="0"
     inkscape:window-y="0"
     inkscape:window-maximized="1"
     inkscape:current-layer="svg6" />
  <g
     transform="translate(0.000000,128.000000) scale(0.100000,-0.100000)"
     fill="#000000"
     stroke="none"
     id="g6"
     style="fill:#e20000;fill-opacity:1">
    <path
       d="M492 1236 c-165 -40 -326 -172 -400 -327 -48 -99 -62 -162 -62 -269 0 -107 14 -170 62 -269 56 -118 161 -223 279 -279 99 -48 162 -62 269 -62 107 0 170 14 269 62 66 32 101 57 162 117 122 123 179 260 179 431 0 107 -14 170 -62 269 -56 118 -161 223 -279 279 -46 22 -108 45 -137 51 -70 14 -213 13 -280 -3z m199 -34 c33 -6 36 -9 28 -29 -5 -15 -17 -23 -31 -23 -47 0 -49 -8 -46 -161 l3 -144 103 -3 102 -3 0 -53 c0 -57 -10 -72 -50 -78 -28 -3 -39 -32 -15 -41 8 -4 29 -4 46 0 36 7 53 38 64 121 10 77 3 82 -116 82 -92 0 -99 1 -99 20 0 19 7 20 105 20 87 0 105 3 105 15 0 12 -18 15 -105 15 -98 0 -105 1 -105 20 0 18 7 20 83 20 51 0 88 5 95 12 15 15 16 112 2 139 -8 14 -21 19 -55 19 -46 0 -51 5 -36 28 6 10 20 8 67 -9 384 -143 493 -639 203 -928 -45 -45 -139 -111 -159 -111 -7 0 -10 78 -10 234 0 237 -4 262 -35 236 -12 -10 -15 -55 -15 -255 l0 -243 -52 -13 c-73 -18 -201 -15 -272 5 -63 19 -62 13 -30 96 13 36 17 83 18 225 1 176 1 180 -20 183 -21 3 -21 -1 -27 -170 -5 -173 -20 -251 -51 -277 -16 -14 -84 28 -145 90 -219 219 -219 579 0 798 42 42 124 101 141 101 4 0 8 -65 8 -145 0 -132 2 -145 19 -155 11 -5 31 -10 45 -10 26 0 26 -1 26 -80 0 -64 3 -80 15 -80 12 0 15 16 15 80 l0 80 34 0 c54 0 57 11 54 181 l-3 154 -70 5 -70 5 55 13 c98 22 128 24 181 14z m-211 -122 c0 -47 -2 -50 -25 -50 -23 0 -25 3 -25 50 0 47 2 50 25 50 23 0 25 -3 25 -50z m88 -2 c3 -47 3 -48 -27 -48 -30 0 -31 1 -31 51 0 49 1 50 28 47 25 -3 27 -7 30 -50z m260 15 c3 -10 -16 -13 -72 -13 -62 0 -76 3 -76 15 0 13 12 15 72 13 46 -2 73 -7 76 -15z m-3 -63 c0 -12 -16 -16 -72 -18 -68 -3 -73 -2 -73 18 0 20 5 21 73 18 56 -2 72 -6 72 -18z m-345 -100 c0 -57 -1 -60 -25 -60 -24 0 -25 3 -25 60 0 57 1 60 25 60 24 0 25 -3 25 -60z m88 3 c-3 -54 -5 -58 -28 -58 -22 0 -25 5 -28 44 -4 57 2 71 33 71 25 0 26 -2 23 -57z"
       id="path1"
       style="fill:#e20000;fill-opacity:1" />
    <path
       d="M800 802 c0 -30 18 -64 31 -57 15 10 11 31 -11 56 l-19 24 -1 -23z"
       id="path2"
       style="fill:#e20000;fill-opacity:1" />
    <path
       d="M612 793 c-5 -10 -13 -33 -17 -50 -5 -26 -3 -33 9 -33 18 0 33 26 38 65 4 32 -16 45 -30 18z"
       id="path3"
       style="fill:#e20000;fill-opacity:1" />
    <path
       d="M677 803 c-2 -5 -2 -25 0 -45 6 -46 33 -53 33 -9 0 48 -19 78 -33 54z"
       id="path4"
       style="fill:#e20000;fill-opacity:1" />
    <path
       d="M740 793 c0 -34 12 -63 26 -63 16 0 18 19 4 54 -11 30 -30 35 -30 9z"
       id="path5"
       style="fill:#e20000;fill-opacity:1" />
    <path
       d="M643 583 c-10 -4 -13 -57 -13 -219 0 -188 2 -215 16 -221 9 -3 20 0 25 8 5 8 9 105 9 215 0 204 -4 229 -37 217z"
       id="path6"
       style="fill:#e20000;fill-opacity:1" />
  </g>
</svg>
